<mxfile host="app.diagrams.net" modified="2023-12-03T16:17:19.298Z" agent="Mozilla/5.0 (Windows NT 10.0; Win64; x64) AppleWebKit/537.36 (KHTML, like Gecko) Chrome/119.0.0.0 Safari/537.36 Edg/119.0.0.0" etag="XTsSAFydphO8jD9ZLN4z" version="22.1.5" type="device">
  <diagram name="Page-1" id="1zNbWzNg6HKUXg4QJoZG">
    <mxGraphModel dx="1242" dy="1669" grid="1" gridSize="10" guides="1" tooltips="1" connect="1" arrows="1" fold="1" page="1" pageScale="1" pageWidth="850" pageHeight="1100" math="0" shadow="0">
      <root>
        <mxCell id="0" />
        <mxCell id="1" parent="0" />
        <mxCell id="qQh02oDflE6RNoaBWZjZ-3" value="" style="edgeStyle=orthogonalEdgeStyle;rounded=0;orthogonalLoop=1;jettySize=auto;html=1;" edge="1" parent="1" source="qQh02oDflE6RNoaBWZjZ-1" target="qQh02oDflE6RNoaBWZjZ-2">
          <mxGeometry relative="1" as="geometry" />
        </mxCell>
        <mxCell id="qQh02oDflE6RNoaBWZjZ-1" value="start" style="ellipse;whiteSpace=wrap;html=1;" vertex="1" parent="1">
          <mxGeometry x="330" y="50" width="120" height="80" as="geometry" />
        </mxCell>
        <mxCell id="qQh02oDflE6RNoaBWZjZ-8" value="" style="edgeStyle=orthogonalEdgeStyle;rounded=0;orthogonalLoop=1;jettySize=auto;html=1;" edge="1" parent="1" source="qQh02oDflE6RNoaBWZjZ-2" target="qQh02oDflE6RNoaBWZjZ-7">
          <mxGeometry relative="1" as="geometry" />
        </mxCell>
        <mxCell id="qQh02oDflE6RNoaBWZjZ-2" value="&quot;Nguyen Gia Thieu&quot;,19,&quot;0355483082&quot;,&quot;nguyenthieu11021995@gmail.com" style="whiteSpace=wrap;html=1;" vertex="1" parent="1">
          <mxGeometry x="330" y="190" width="120" height="60" as="geometry" />
        </mxCell>
        <mxCell id="qQh02oDflE6RNoaBWZjZ-6" value="" style="edgeStyle=orthogonalEdgeStyle;rounded=0;orthogonalLoop=1;jettySize=auto;html=1;" edge="1" parent="1" source="qQh02oDflE6RNoaBWZjZ-4" target="qQh02oDflE6RNoaBWZjZ-5">
          <mxGeometry relative="1" as="geometry" />
        </mxCell>
        <mxCell id="qQh02oDflE6RNoaBWZjZ-4" value="struct Person" style="shape=parallelogram;perimeter=parallelogramPerimeter;whiteSpace=wrap;html=1;fixedSize=1;" vertex="1" parent="1">
          <mxGeometry x="150" y="-40" width="120" height="60" as="geometry" />
        </mxCell>
        <mxCell id="qQh02oDflE6RNoaBWZjZ-5" value="&lt;div&gt;char name[100];&lt;/div&gt;&lt;div&gt;int age;&lt;span style=&quot;&quot;&gt;&lt;/span&gt;&lt;/div&gt;&lt;div&gt;&lt;span style=&quot;&quot;&gt;&lt;span style=&quot;&quot;&gt;&lt;span style=&quot;white-space: pre;&quot;&gt;&amp;nbsp;&amp;nbsp;&amp;nbsp;&amp;nbsp;&lt;/span&gt;&lt;span style=&quot;white-space: pre;&quot;&gt;&amp;nbsp;&amp;nbsp;&amp;nbsp;&amp;nbsp;&lt;/span&gt;&lt;/span&gt;char phoneNumbers[100];&lt;/span&gt;&lt;/div&gt;&lt;div&gt;&lt;span style=&quot;&quot;&gt;&lt;span style=&quot;&quot;&gt;&lt;span style=&quot;white-space: pre;&quot;&gt;&amp;nbsp;&amp;nbsp;&amp;nbsp;&amp;nbsp;&lt;/span&gt;&lt;span style=&quot;white-space: pre;&quot;&gt;&amp;nbsp;&amp;nbsp;&amp;nbsp;&amp;nbsp;&lt;/span&gt;&lt;/span&gt;char email[100];&lt;/span&gt;&lt;/div&gt;" style="whiteSpace=wrap;html=1;" vertex="1" parent="1">
          <mxGeometry x="320" y="-40" width="120" height="60" as="geometry" />
        </mxCell>
        <mxCell id="qQh02oDflE6RNoaBWZjZ-7" value="end" style="ellipse;whiteSpace=wrap;html=1;" vertex="1" parent="1">
          <mxGeometry x="335" y="320" width="110" height="80" as="geometry" />
        </mxCell>
      </root>
    </mxGraphModel>
  </diagram>
</mxfile>
